%TF.GenerationSoftware,KiCad,Pcbnew,6.0.7-f9a2dced07~116~ubuntu22.04.1*%
%TF.CreationDate,2022-08-06T22:34:21-05:00*%
%TF.ProjectId,CricutISPCartridge,43726963-7574-4495-9350-436172747269,rev?*%
%TF.SameCoordinates,Original*%
%TF.FileFunction,Drillmap*%
%TF.FilePolarity,Positive*%
%FSLAX45Y45*%
G04 Gerber Fmt 4.5, Leading zero omitted, Abs format (unit mm)*
G04 Created by KiCad (PCBNEW 6.0.7-f9a2dced07~116~ubuntu22.04.1) date 2022-08-06 22:34:21*
%MOMM*%
%LPD*%
G01*
G04 APERTURE LIST*
%ADD10C,0.100000*%
%ADD11C,0.200000*%
G04 APERTURE END LIST*
D10*
X8509000Y-9144000D02*
X5715000Y-9144000D01*
X5715000Y-11811000D02*
X5715000Y-9144000D01*
X8509000Y-11811000D02*
X8509000Y-9144000D01*
D11*
X5966619Y-12952976D02*
X5966619Y-12752976D01*
X6014238Y-12752976D01*
X6042809Y-12762500D01*
X6061857Y-12781548D01*
X6071381Y-12800595D01*
X6080905Y-12838690D01*
X6080905Y-12867262D01*
X6071381Y-12905357D01*
X6061857Y-12924405D01*
X6042809Y-12943452D01*
X6014238Y-12952976D01*
X5966619Y-12952976D01*
X6166619Y-12952976D02*
X6166619Y-12819643D01*
X6166619Y-12857738D02*
X6176143Y-12838690D01*
X6185667Y-12829167D01*
X6204714Y-12819643D01*
X6223762Y-12819643D01*
X6290428Y-12952976D02*
X6290428Y-12819643D01*
X6290428Y-12752976D02*
X6280905Y-12762500D01*
X6290428Y-12772024D01*
X6299952Y-12762500D01*
X6290428Y-12752976D01*
X6290428Y-12772024D01*
X6414238Y-12952976D02*
X6395190Y-12943452D01*
X6385667Y-12924405D01*
X6385667Y-12752976D01*
X6519000Y-12952976D02*
X6499952Y-12943452D01*
X6490428Y-12924405D01*
X6490428Y-12752976D01*
X6747571Y-12952976D02*
X6747571Y-12752976D01*
X6814238Y-12895833D01*
X6880905Y-12752976D01*
X6880905Y-12952976D01*
X7061857Y-12952976D02*
X7061857Y-12848214D01*
X7052333Y-12829167D01*
X7033286Y-12819643D01*
X6995190Y-12819643D01*
X6976143Y-12829167D01*
X7061857Y-12943452D02*
X7042809Y-12952976D01*
X6995190Y-12952976D01*
X6976143Y-12943452D01*
X6966619Y-12924405D01*
X6966619Y-12905357D01*
X6976143Y-12886309D01*
X6995190Y-12876786D01*
X7042809Y-12876786D01*
X7061857Y-12867262D01*
X7157095Y-12819643D02*
X7157095Y-13019643D01*
X7157095Y-12829167D02*
X7176143Y-12819643D01*
X7214238Y-12819643D01*
X7233286Y-12829167D01*
X7242809Y-12838690D01*
X7252333Y-12857738D01*
X7252333Y-12914881D01*
X7242809Y-12933928D01*
X7233286Y-12943452D01*
X7214238Y-12952976D01*
X7176143Y-12952976D01*
X7157095Y-12943452D01*
X7338048Y-12933928D02*
X7347571Y-12943452D01*
X7338048Y-12952976D01*
X7328524Y-12943452D01*
X7338048Y-12933928D01*
X7338048Y-12952976D01*
X7338048Y-12829167D02*
X7347571Y-12838690D01*
X7338048Y-12848214D01*
X7328524Y-12838690D01*
X7338048Y-12829167D01*
X7338048Y-12848214D01*
M02*
