G04 #@! TF.GenerationSoftware,KiCad,Pcbnew,6.0.7-f9a2dced07~116~ubuntu22.04.1*
G04 #@! TF.CreationDate,2022-08-26T07:23:39-05:00*
G04 #@! TF.ProjectId,CricutISPCartridge,43726963-7574-4495-9350-436172747269,rev?*
G04 #@! TF.SameCoordinates,Original*
G04 #@! TF.FileFunction,Copper,L2,Bot*
G04 #@! TF.FilePolarity,Positive*
%FSLAX46Y46*%
G04 Gerber Fmt 4.6, Leading zero omitted, Abs format (unit mm)*
G04 Created by KiCad (PCBNEW 6.0.7-f9a2dced07~116~ubuntu22.04.1) date 2022-08-26 07:23:39*
%MOMM*%
%LPD*%
G01*
G04 APERTURE LIST*
G04 Aperture macros list*
%AMRoundRect*
0 Rectangle with rounded corners*
0 $1 Rounding radius*
0 $2 $3 $4 $5 $6 $7 $8 $9 X,Y pos of 4 corners*
0 Add a 4 corners polygon primitive as box body*
4,1,4,$2,$3,$4,$5,$6,$7,$8,$9,$2,$3,0*
0 Add four circle primitives for the rounded corners*
1,1,$1+$1,$2,$3*
1,1,$1+$1,$4,$5*
1,1,$1+$1,$6,$7*
1,1,$1+$1,$8,$9*
0 Add four rect primitives between the rounded corners*
20,1,$1+$1,$2,$3,$4,$5,0*
20,1,$1+$1,$4,$5,$6,$7,0*
20,1,$1+$1,$6,$7,$8,$9,0*
20,1,$1+$1,$8,$9,$2,$3,0*%
G04 Aperture macros list end*
G04 #@! TA.AperFunction,ComponentPad*
%ADD10R,1.700000X1.700000*%
G04 #@! TD*
G04 #@! TA.AperFunction,ComponentPad*
%ADD11O,1.700000X1.700000*%
G04 #@! TD*
G04 #@! TA.AperFunction,ConnectorPad*
%ADD12RoundRect,0.381000X-0.381000X-3.619000X0.381000X-3.619000X0.381000X3.619000X-0.381000X3.619000X0*%
G04 #@! TD*
G04 #@! TA.AperFunction,ViaPad*
%ADD13C,0.800000*%
G04 #@! TD*
G04 #@! TA.AperFunction,Conductor*
%ADD14C,0.250000*%
G04 #@! TD*
G04 APERTURE END LIST*
D10*
X62230000Y-97790000D03*
D11*
X62230000Y-95250000D03*
X64770000Y-97790000D03*
X64770000Y-95250000D03*
X67310000Y-97790000D03*
X67310000Y-95250000D03*
D10*
X62230000Y-103505000D03*
D11*
X62230000Y-106045000D03*
X62230000Y-108585000D03*
D12*
X59690000Y-121920000D03*
X62230000Y-121920000D03*
X64770000Y-121920000D03*
X67310000Y-121920000D03*
X69850000Y-121920000D03*
X72390000Y-121920000D03*
X74930000Y-121920000D03*
X77470000Y-121920000D03*
X80010000Y-121920000D03*
X82550000Y-121920000D03*
D13*
X59690000Y-111125000D03*
X62230000Y-112395000D03*
X64770000Y-113665000D03*
X67310000Y-114935000D03*
X69850000Y-116205000D03*
X83820000Y-116205000D03*
X83820000Y-92710000D03*
X58420000Y-116205000D03*
X60960000Y-100330000D03*
X58420000Y-92710000D03*
D14*
X82550000Y-111125000D02*
X59690000Y-111125000D01*
X82550000Y-111125000D02*
X82550000Y-121920000D01*
X80010000Y-112395000D02*
X62230000Y-112395000D01*
X80010000Y-112395000D02*
X80010000Y-121920000D01*
X64770000Y-113665000D02*
X77470000Y-113665000D01*
X77470000Y-113665000D02*
X77470000Y-121920000D01*
X74930000Y-114935000D02*
X67310000Y-114935000D01*
X74930000Y-114935000D02*
X74930000Y-121920000D01*
X72390000Y-116205000D02*
X72390000Y-121920000D01*
X72390000Y-116205000D02*
X69850000Y-116205000D01*
G04 #@! TA.AperFunction,Conductor*
G36*
X84523621Y-91968502D02*
G01*
X84570114Y-92022158D01*
X84581500Y-92074500D01*
X84581500Y-117984000D01*
X84561498Y-118052121D01*
X84507842Y-118098614D01*
X84455500Y-118110000D01*
X83897383Y-118110000D01*
X83829262Y-118089998D01*
X83782769Y-118036342D01*
X83775676Y-118016610D01*
X83767703Y-117986852D01*
X83767701Y-117986847D01*
X83765994Y-117980476D01*
X83681107Y-117813875D01*
X83563436Y-117668564D01*
X83418125Y-117550893D01*
X83412248Y-117547898D01*
X83412241Y-117547894D01*
X83252298Y-117466400D01*
X83200682Y-117417652D01*
X83183500Y-117354133D01*
X83183500Y-111196793D01*
X83185732Y-111173184D01*
X83185790Y-111172881D01*
X83185790Y-111172877D01*
X83187275Y-111165094D01*
X83183749Y-111109049D01*
X83183500Y-111101138D01*
X83183500Y-111085144D01*
X83181494Y-111069270D01*
X83180751Y-111061402D01*
X83177723Y-111013263D01*
X83177723Y-111013262D01*
X83177225Y-111005350D01*
X83174679Y-110997513D01*
X83169506Y-110974369D01*
X83169468Y-110974065D01*
X83169467Y-110974060D01*
X83168474Y-110966203D01*
X83165558Y-110958838D01*
X83165557Y-110958834D01*
X83147801Y-110913989D01*
X83145129Y-110906570D01*
X83127764Y-110853125D01*
X83123514Y-110846428D01*
X83123350Y-110846169D01*
X83112585Y-110825042D01*
X83112471Y-110824754D01*
X83112468Y-110824749D01*
X83109552Y-110817383D01*
X83104896Y-110810975D01*
X83104893Y-110810969D01*
X83076542Y-110771948D01*
X83072092Y-110765401D01*
X83042000Y-110717982D01*
X83035993Y-110712341D01*
X83020312Y-110694554D01*
X83020134Y-110694309D01*
X83020132Y-110694307D01*
X83015472Y-110687893D01*
X83009362Y-110682838D01*
X82972204Y-110652097D01*
X82966270Y-110646866D01*
X82931102Y-110613842D01*
X82931099Y-110613840D01*
X82925321Y-110608414D01*
X82918097Y-110604442D01*
X82898494Y-110591119D01*
X82898254Y-110590920D01*
X82898247Y-110590916D01*
X82892144Y-110585867D01*
X82841324Y-110561953D01*
X82834292Y-110558371D01*
X82785060Y-110531305D01*
X82777385Y-110529335D01*
X82777379Y-110529332D01*
X82777081Y-110529256D01*
X82754772Y-110521224D01*
X82754497Y-110521094D01*
X82754489Y-110521091D01*
X82747318Y-110517717D01*
X82692151Y-110507194D01*
X82684442Y-110505471D01*
X82650449Y-110496743D01*
X82637707Y-110493471D01*
X82637706Y-110493471D01*
X82630030Y-110491500D01*
X82621793Y-110491500D01*
X82598184Y-110489268D01*
X82597881Y-110489210D01*
X82597877Y-110489210D01*
X82590094Y-110487725D01*
X82534049Y-110491251D01*
X82526138Y-110491500D01*
X60398200Y-110491500D01*
X60330079Y-110471498D01*
X60310853Y-110455157D01*
X60310580Y-110455460D01*
X60305668Y-110451037D01*
X60301253Y-110446134D01*
X60146752Y-110333882D01*
X60140724Y-110331198D01*
X60140722Y-110331197D01*
X59978319Y-110258891D01*
X59978318Y-110258891D01*
X59972288Y-110256206D01*
X59878888Y-110236353D01*
X59791944Y-110217872D01*
X59791939Y-110217872D01*
X59785487Y-110216500D01*
X59594513Y-110216500D01*
X59588061Y-110217872D01*
X59588056Y-110217872D01*
X59501112Y-110236353D01*
X59407712Y-110256206D01*
X59401682Y-110258891D01*
X59401681Y-110258891D01*
X59239278Y-110331197D01*
X59239276Y-110331198D01*
X59233248Y-110333882D01*
X59078747Y-110446134D01*
X59074326Y-110451044D01*
X59074325Y-110451045D01*
X59036125Y-110493471D01*
X58950960Y-110588056D01*
X58855473Y-110753444D01*
X58796458Y-110935072D01*
X58795768Y-110941633D01*
X58795768Y-110941635D01*
X58780685Y-111085144D01*
X58776496Y-111125000D01*
X58777186Y-111131565D01*
X58779879Y-111157183D01*
X58796458Y-111314928D01*
X58855473Y-111496556D01*
X58950960Y-111661944D01*
X58955378Y-111666851D01*
X58955379Y-111666852D01*
X59041905Y-111762949D01*
X59078747Y-111803866D01*
X59150320Y-111855867D01*
X59199636Y-111891697D01*
X59233248Y-111916118D01*
X59239276Y-111918802D01*
X59239278Y-111918803D01*
X59394658Y-111987982D01*
X59407712Y-111993794D01*
X59501112Y-112013647D01*
X59588056Y-112032128D01*
X59588061Y-112032128D01*
X59594513Y-112033500D01*
X59785487Y-112033500D01*
X59791939Y-112032128D01*
X59791944Y-112032128D01*
X59878888Y-112013647D01*
X59972288Y-111993794D01*
X59985342Y-111987982D01*
X60140722Y-111918803D01*
X60140724Y-111918802D01*
X60146752Y-111916118D01*
X60180365Y-111891697D01*
X60279671Y-111819546D01*
X60301253Y-111803866D01*
X60305668Y-111798963D01*
X60310580Y-111794540D01*
X60311705Y-111795789D01*
X60365014Y-111762949D01*
X60398200Y-111758500D01*
X61330200Y-111758500D01*
X61398321Y-111778502D01*
X61444814Y-111832158D01*
X61454918Y-111902432D01*
X61439319Y-111947500D01*
X61412591Y-111993794D01*
X61395473Y-112023444D01*
X61336458Y-112205072D01*
X61335768Y-112211633D01*
X61335768Y-112211635D01*
X61320685Y-112355144D01*
X61316496Y-112395000D01*
X61317186Y-112401565D01*
X61319879Y-112427183D01*
X61336458Y-112584928D01*
X61395473Y-112766556D01*
X61490960Y-112931944D01*
X61495378Y-112936851D01*
X61495379Y-112936852D01*
X61581905Y-113032949D01*
X61618747Y-113073866D01*
X61690320Y-113125867D01*
X61739636Y-113161697D01*
X61773248Y-113186118D01*
X61779276Y-113188802D01*
X61779278Y-113188803D01*
X61934658Y-113257982D01*
X61947712Y-113263794D01*
X62041112Y-113283647D01*
X62128056Y-113302128D01*
X62128061Y-113302128D01*
X62134513Y-113303500D01*
X62325487Y-113303500D01*
X62331939Y-113302128D01*
X62331944Y-113302128D01*
X62418887Y-113283647D01*
X62512288Y-113263794D01*
X62525342Y-113257982D01*
X62680722Y-113188803D01*
X62680724Y-113188802D01*
X62686752Y-113186118D01*
X62720365Y-113161697D01*
X62819671Y-113089546D01*
X62841253Y-113073866D01*
X62845668Y-113068963D01*
X62850580Y-113064540D01*
X62851705Y-113065789D01*
X62905014Y-113032949D01*
X62938200Y-113028500D01*
X63870200Y-113028500D01*
X63938321Y-113048502D01*
X63984814Y-113102158D01*
X63994918Y-113172432D01*
X63979319Y-113217500D01*
X63952591Y-113263794D01*
X63935473Y-113293444D01*
X63876458Y-113475072D01*
X63875768Y-113481633D01*
X63875768Y-113481635D01*
X63860685Y-113625144D01*
X63856496Y-113665000D01*
X63857186Y-113671565D01*
X63859879Y-113697183D01*
X63876458Y-113854928D01*
X63935473Y-114036556D01*
X64030960Y-114201944D01*
X64035378Y-114206851D01*
X64035379Y-114206852D01*
X64121905Y-114302949D01*
X64158747Y-114343866D01*
X64230320Y-114395867D01*
X64279636Y-114431697D01*
X64313248Y-114456118D01*
X64319276Y-114458802D01*
X64319278Y-114458803D01*
X64474658Y-114527982D01*
X64487712Y-114533794D01*
X64581113Y-114553647D01*
X64668056Y-114572128D01*
X64668061Y-114572128D01*
X64674513Y-114573500D01*
X64865487Y-114573500D01*
X64871939Y-114572128D01*
X64871944Y-114572128D01*
X64958887Y-114553647D01*
X65052288Y-114533794D01*
X65065342Y-114527982D01*
X65220722Y-114458803D01*
X65220724Y-114458802D01*
X65226752Y-114456118D01*
X65260365Y-114431697D01*
X65359671Y-114359546D01*
X65381253Y-114343866D01*
X65385668Y-114338963D01*
X65390580Y-114334540D01*
X65391705Y-114335789D01*
X65445014Y-114302949D01*
X65478200Y-114298500D01*
X66410200Y-114298500D01*
X66478321Y-114318502D01*
X66524814Y-114372158D01*
X66534918Y-114442432D01*
X66519319Y-114487500D01*
X66492591Y-114533794D01*
X66475473Y-114563444D01*
X66416458Y-114745072D01*
X66415768Y-114751633D01*
X66415768Y-114751635D01*
X66400685Y-114895144D01*
X66396496Y-114935000D01*
X66397186Y-114941565D01*
X66399879Y-114967183D01*
X66416458Y-115124928D01*
X66475473Y-115306556D01*
X66570960Y-115471944D01*
X66575378Y-115476851D01*
X66575379Y-115476852D01*
X66661905Y-115572949D01*
X66698747Y-115613866D01*
X66770320Y-115665867D01*
X66819636Y-115701697D01*
X66853248Y-115726118D01*
X66859276Y-115728802D01*
X66859278Y-115728803D01*
X67014658Y-115797982D01*
X67027712Y-115803794D01*
X67121113Y-115823647D01*
X67208056Y-115842128D01*
X67208061Y-115842128D01*
X67214513Y-115843500D01*
X67405487Y-115843500D01*
X67411939Y-115842128D01*
X67411944Y-115842128D01*
X67498887Y-115823647D01*
X67592288Y-115803794D01*
X67605342Y-115797982D01*
X67760722Y-115728803D01*
X67760724Y-115728802D01*
X67766752Y-115726118D01*
X67800365Y-115701697D01*
X67899671Y-115629546D01*
X67921253Y-115613866D01*
X67925668Y-115608963D01*
X67930580Y-115604540D01*
X67931705Y-115605789D01*
X67985014Y-115572949D01*
X68018200Y-115568500D01*
X68950200Y-115568500D01*
X69018321Y-115588502D01*
X69064814Y-115642158D01*
X69074918Y-115712432D01*
X69059319Y-115757500D01*
X69032591Y-115803794D01*
X69015473Y-115833444D01*
X68956458Y-116015072D01*
X68955768Y-116021633D01*
X68955768Y-116021635D01*
X68940685Y-116165144D01*
X68936496Y-116205000D01*
X68937186Y-116211565D01*
X68939879Y-116237183D01*
X68956458Y-116394928D01*
X69015473Y-116576556D01*
X69110960Y-116741944D01*
X69238747Y-116883866D01*
X69393248Y-116996118D01*
X69399276Y-116998802D01*
X69399278Y-116998803D01*
X69561681Y-117071109D01*
X69567712Y-117073794D01*
X69661113Y-117093647D01*
X69748056Y-117112128D01*
X69748061Y-117112128D01*
X69754513Y-117113500D01*
X69945487Y-117113500D01*
X69951939Y-117112128D01*
X69951944Y-117112128D01*
X70038887Y-117093647D01*
X70132288Y-117073794D01*
X70138319Y-117071109D01*
X70300722Y-116998803D01*
X70300724Y-116998802D01*
X70306752Y-116996118D01*
X70461253Y-116883866D01*
X70465668Y-116878963D01*
X70470580Y-116874540D01*
X70471705Y-116875789D01*
X70525014Y-116842949D01*
X70558200Y-116838500D01*
X71630500Y-116838500D01*
X71698621Y-116858502D01*
X71745114Y-116912158D01*
X71756500Y-116964500D01*
X71756500Y-117354133D01*
X71736498Y-117422254D01*
X71687702Y-117466400D01*
X71527759Y-117547894D01*
X71527752Y-117547898D01*
X71521875Y-117550893D01*
X71376564Y-117668564D01*
X71258893Y-117813875D01*
X71174006Y-117980476D01*
X71172299Y-117986847D01*
X71172297Y-117986852D01*
X71164324Y-118016610D01*
X71127373Y-118077233D01*
X71063513Y-118108255D01*
X71042617Y-118110000D01*
X68657383Y-118110000D01*
X68589262Y-118089998D01*
X68542769Y-118036342D01*
X68535676Y-118016610D01*
X68527703Y-117986852D01*
X68527701Y-117986847D01*
X68525994Y-117980476D01*
X68441107Y-117813875D01*
X68323436Y-117668564D01*
X68178125Y-117550893D01*
X68011524Y-117466006D01*
X68005150Y-117464298D01*
X67836492Y-117419106D01*
X67836488Y-117419105D01*
X67830915Y-117417612D01*
X67819534Y-117416716D01*
X67755714Y-117411693D01*
X67755706Y-117411693D01*
X67753258Y-117411500D01*
X66866742Y-117411500D01*
X66864294Y-117411693D01*
X66864286Y-117411693D01*
X66800466Y-117416716D01*
X66789085Y-117417612D01*
X66783512Y-117419105D01*
X66783508Y-117419106D01*
X66614850Y-117464298D01*
X66608476Y-117466006D01*
X66441875Y-117550893D01*
X66296564Y-117668564D01*
X66178893Y-117813875D01*
X66175898Y-117819752D01*
X66175894Y-117819759D01*
X66152267Y-117866131D01*
X66103519Y-117917747D01*
X66034604Y-117934813D01*
X65967403Y-117911913D01*
X65927733Y-117866131D01*
X65904106Y-117819759D01*
X65904102Y-117819752D01*
X65901107Y-117813875D01*
X65783436Y-117668564D01*
X65638125Y-117550893D01*
X65471524Y-117466006D01*
X65465150Y-117464298D01*
X65296492Y-117419106D01*
X65296488Y-117419105D01*
X65290915Y-117417612D01*
X65279534Y-117416716D01*
X65215714Y-117411693D01*
X65215706Y-117411693D01*
X65213258Y-117411500D01*
X64326742Y-117411500D01*
X64324294Y-117411693D01*
X64324286Y-117411693D01*
X64260466Y-117416716D01*
X64249085Y-117417612D01*
X64243512Y-117419105D01*
X64243508Y-117419106D01*
X64074850Y-117464298D01*
X64068476Y-117466006D01*
X63901875Y-117550893D01*
X63756564Y-117668564D01*
X63638893Y-117813875D01*
X63635898Y-117819752D01*
X63635894Y-117819759D01*
X63612267Y-117866131D01*
X63563519Y-117917747D01*
X63494604Y-117934813D01*
X63427403Y-117911913D01*
X63387733Y-117866131D01*
X63364106Y-117819759D01*
X63364102Y-117819752D01*
X63361107Y-117813875D01*
X63243436Y-117668564D01*
X63098125Y-117550893D01*
X62931524Y-117466006D01*
X62925150Y-117464298D01*
X62756492Y-117419106D01*
X62756488Y-117419105D01*
X62750915Y-117417612D01*
X62739534Y-117416716D01*
X62675714Y-117411693D01*
X62675706Y-117411693D01*
X62673258Y-117411500D01*
X61786742Y-117411500D01*
X61784294Y-117411693D01*
X61784286Y-117411693D01*
X61720466Y-117416716D01*
X61709085Y-117417612D01*
X61703512Y-117419105D01*
X61703508Y-117419106D01*
X61534850Y-117464298D01*
X61528476Y-117466006D01*
X61361875Y-117550893D01*
X61216564Y-117668564D01*
X61098893Y-117813875D01*
X61095898Y-117819752D01*
X61095894Y-117819759D01*
X61072267Y-117866131D01*
X61023519Y-117917747D01*
X60954604Y-117934813D01*
X60887403Y-117911913D01*
X60847733Y-117866131D01*
X60824106Y-117819759D01*
X60824102Y-117819752D01*
X60821107Y-117813875D01*
X60703436Y-117668564D01*
X60558125Y-117550893D01*
X60391524Y-117466006D01*
X60385150Y-117464298D01*
X60216492Y-117419106D01*
X60216488Y-117419105D01*
X60210915Y-117417612D01*
X60199534Y-117416716D01*
X60135714Y-117411693D01*
X60135706Y-117411693D01*
X60133258Y-117411500D01*
X59246742Y-117411500D01*
X59244294Y-117411693D01*
X59244286Y-117411693D01*
X59180466Y-117416716D01*
X59169085Y-117417612D01*
X59163512Y-117419105D01*
X59163508Y-117419106D01*
X58994850Y-117464298D01*
X58988476Y-117466006D01*
X58821875Y-117550893D01*
X58676564Y-117668564D01*
X58558893Y-117813875D01*
X58474006Y-117980476D01*
X58472299Y-117986847D01*
X58472297Y-117986852D01*
X58464324Y-118016610D01*
X58427373Y-118077233D01*
X58363513Y-118108255D01*
X58342617Y-118110000D01*
X57784500Y-118110000D01*
X57716379Y-118089998D01*
X57669886Y-118036342D01*
X57658500Y-117984000D01*
X57658500Y-108551695D01*
X60867251Y-108551695D01*
X60867548Y-108556848D01*
X60867548Y-108556851D01*
X60873011Y-108651590D01*
X60880110Y-108774715D01*
X60881247Y-108779761D01*
X60881248Y-108779767D01*
X60901119Y-108867939D01*
X60929222Y-108992639D01*
X61013266Y-109199616D01*
X61129987Y-109390088D01*
X61276250Y-109558938D01*
X61448126Y-109701632D01*
X61641000Y-109814338D01*
X61849692Y-109894030D01*
X61854760Y-109895061D01*
X61854763Y-109895062D01*
X61962017Y-109916883D01*
X62068597Y-109938567D01*
X62073772Y-109938757D01*
X62073774Y-109938757D01*
X62286673Y-109946564D01*
X62286677Y-109946564D01*
X62291837Y-109946753D01*
X62296957Y-109946097D01*
X62296959Y-109946097D01*
X62508288Y-109919025D01*
X62508289Y-109919025D01*
X62513416Y-109918368D01*
X62518366Y-109916883D01*
X62722429Y-109855661D01*
X62722434Y-109855659D01*
X62727384Y-109854174D01*
X62927994Y-109755896D01*
X63109860Y-109626173D01*
X63268096Y-109468489D01*
X63327594Y-109385689D01*
X63395435Y-109291277D01*
X63398453Y-109287077D01*
X63497430Y-109086811D01*
X63562370Y-108873069D01*
X63591529Y-108651590D01*
X63593156Y-108585000D01*
X63574852Y-108362361D01*
X63520431Y-108145702D01*
X63431354Y-107940840D01*
X63310014Y-107753277D01*
X63159670Y-107588051D01*
X63155619Y-107584852D01*
X63155615Y-107584848D01*
X62988414Y-107452800D01*
X62988410Y-107452798D01*
X62984359Y-107449598D01*
X62943053Y-107426796D01*
X62893084Y-107376364D01*
X62878312Y-107306921D01*
X62903428Y-107240516D01*
X62930780Y-107213909D01*
X62974603Y-107182650D01*
X63109860Y-107086173D01*
X63268096Y-106928489D01*
X63327594Y-106845689D01*
X63395435Y-106751277D01*
X63398453Y-106747077D01*
X63497430Y-106546811D01*
X63562370Y-106333069D01*
X63591529Y-106111590D01*
X63593156Y-106045000D01*
X63574852Y-105822361D01*
X63520431Y-105605702D01*
X63431354Y-105400840D01*
X63310014Y-105213277D01*
X63306532Y-105209450D01*
X63162798Y-105051488D01*
X63131746Y-104987642D01*
X63140141Y-104917143D01*
X63185317Y-104862375D01*
X63211761Y-104848706D01*
X63318297Y-104808767D01*
X63326705Y-104805615D01*
X63443261Y-104718261D01*
X63530615Y-104601705D01*
X63581745Y-104465316D01*
X63588500Y-104403134D01*
X63588500Y-102606866D01*
X63581745Y-102544684D01*
X63530615Y-102408295D01*
X63443261Y-102291739D01*
X63326705Y-102204385D01*
X63190316Y-102153255D01*
X63128134Y-102146500D01*
X61331866Y-102146500D01*
X61269684Y-102153255D01*
X61133295Y-102204385D01*
X61016739Y-102291739D01*
X60929385Y-102408295D01*
X60878255Y-102544684D01*
X60871500Y-102606866D01*
X60871500Y-104403134D01*
X60878255Y-104465316D01*
X60929385Y-104601705D01*
X61016739Y-104718261D01*
X61133295Y-104805615D01*
X61141704Y-104808767D01*
X61141705Y-104808768D01*
X61250451Y-104849535D01*
X61307216Y-104892176D01*
X61331916Y-104958738D01*
X61316709Y-105028087D01*
X61297316Y-105054568D01*
X61170629Y-105187138D01*
X61044743Y-105371680D01*
X60950688Y-105574305D01*
X60890989Y-105789570D01*
X60867251Y-106011695D01*
X60867548Y-106016848D01*
X60867548Y-106016851D01*
X60873011Y-106111590D01*
X60880110Y-106234715D01*
X60881247Y-106239761D01*
X60881248Y-106239767D01*
X60901119Y-106327939D01*
X60929222Y-106452639D01*
X61013266Y-106659616D01*
X61129987Y-106850088D01*
X61276250Y-107018938D01*
X61448126Y-107161632D01*
X61518595Y-107202811D01*
X61521445Y-107204476D01*
X61570169Y-107256114D01*
X61583240Y-107325897D01*
X61556509Y-107391669D01*
X61516055Y-107425027D01*
X61503607Y-107431507D01*
X61499474Y-107434610D01*
X61499471Y-107434612D01*
X61475247Y-107452800D01*
X61324965Y-107565635D01*
X61170629Y-107727138D01*
X61044743Y-107911680D01*
X60950688Y-108114305D01*
X60890989Y-108329570D01*
X60867251Y-108551695D01*
X57658500Y-108551695D01*
X57658500Y-95216695D01*
X60867251Y-95216695D01*
X60867548Y-95221848D01*
X60867548Y-95221851D01*
X60873011Y-95316590D01*
X60880110Y-95439715D01*
X60881247Y-95444761D01*
X60881248Y-95444767D01*
X60901119Y-95532939D01*
X60929222Y-95657639D01*
X61013266Y-95864616D01*
X61064019Y-95947438D01*
X61127291Y-96050688D01*
X61129987Y-96055088D01*
X61276250Y-96223938D01*
X61280230Y-96227242D01*
X61284981Y-96231187D01*
X61324616Y-96290090D01*
X61326113Y-96361071D01*
X61288997Y-96421593D01*
X61248725Y-96446112D01*
X61181907Y-96471161D01*
X61133295Y-96489385D01*
X61016739Y-96576739D01*
X60929385Y-96693295D01*
X60878255Y-96829684D01*
X60871500Y-96891866D01*
X60871500Y-98688134D01*
X60878255Y-98750316D01*
X60929385Y-98886705D01*
X61016739Y-99003261D01*
X61133295Y-99090615D01*
X61269684Y-99141745D01*
X61331866Y-99148500D01*
X63128134Y-99148500D01*
X63190316Y-99141745D01*
X63326705Y-99090615D01*
X63443261Y-99003261D01*
X63530615Y-98886705D01*
X63552799Y-98827529D01*
X63574598Y-98769382D01*
X63617240Y-98712618D01*
X63683802Y-98687918D01*
X63753150Y-98703126D01*
X63787817Y-98731114D01*
X63816250Y-98763938D01*
X63988126Y-98906632D01*
X64181000Y-99019338D01*
X64389692Y-99099030D01*
X64394760Y-99100061D01*
X64394763Y-99100062D01*
X64502017Y-99121883D01*
X64608597Y-99143567D01*
X64613772Y-99143757D01*
X64613774Y-99143757D01*
X64826673Y-99151564D01*
X64826677Y-99151564D01*
X64831837Y-99151753D01*
X64836957Y-99151097D01*
X64836959Y-99151097D01*
X65048288Y-99124025D01*
X65048289Y-99124025D01*
X65053416Y-99123368D01*
X65058366Y-99121883D01*
X65262429Y-99060661D01*
X65262434Y-99060659D01*
X65267384Y-99059174D01*
X65467994Y-98960896D01*
X65649860Y-98831173D01*
X65808096Y-98673489D01*
X65938453Y-98492077D01*
X65939776Y-98493028D01*
X65986645Y-98449857D01*
X66056580Y-98437625D01*
X66122026Y-98465144D01*
X66149875Y-98496994D01*
X66209987Y-98595088D01*
X66356250Y-98763938D01*
X66528126Y-98906632D01*
X66721000Y-99019338D01*
X66929692Y-99099030D01*
X66934760Y-99100061D01*
X66934763Y-99100062D01*
X67042017Y-99121883D01*
X67148597Y-99143567D01*
X67153772Y-99143757D01*
X67153774Y-99143757D01*
X67366673Y-99151564D01*
X67366677Y-99151564D01*
X67371837Y-99151753D01*
X67376957Y-99151097D01*
X67376959Y-99151097D01*
X67588288Y-99124025D01*
X67588289Y-99124025D01*
X67593416Y-99123368D01*
X67598366Y-99121883D01*
X67802429Y-99060661D01*
X67802434Y-99060659D01*
X67807384Y-99059174D01*
X68007994Y-98960896D01*
X68189860Y-98831173D01*
X68348096Y-98673489D01*
X68478453Y-98492077D01*
X68499320Y-98449857D01*
X68575136Y-98296453D01*
X68575137Y-98296451D01*
X68577430Y-98291811D01*
X68642370Y-98078069D01*
X68671529Y-97856590D01*
X68673156Y-97790000D01*
X68654852Y-97567361D01*
X68600431Y-97350702D01*
X68511354Y-97145840D01*
X68390014Y-96958277D01*
X68239670Y-96793051D01*
X68235619Y-96789852D01*
X68235615Y-96789848D01*
X68068414Y-96657800D01*
X68068410Y-96657798D01*
X68064359Y-96654598D01*
X67868789Y-96546638D01*
X67863920Y-96544914D01*
X67863916Y-96544912D01*
X67663087Y-96473795D01*
X67663083Y-96473794D01*
X67658212Y-96472069D01*
X67653119Y-96471162D01*
X67653116Y-96471161D01*
X67443373Y-96433800D01*
X67443367Y-96433799D01*
X67438284Y-96432894D01*
X67364452Y-96431992D01*
X67220081Y-96430228D01*
X67220079Y-96430228D01*
X67214911Y-96430165D01*
X66994091Y-96463955D01*
X66781756Y-96533357D01*
X66583607Y-96636507D01*
X66579474Y-96639610D01*
X66579471Y-96639612D01*
X66409100Y-96767530D01*
X66404965Y-96770635D01*
X66401393Y-96774373D01*
X66293729Y-96887037D01*
X66250629Y-96932138D01*
X66143201Y-97089621D01*
X66088293Y-97134621D01*
X66017768Y-97142792D01*
X65954021Y-97111538D01*
X65933324Y-97087054D01*
X65852822Y-96962617D01*
X65852820Y-96962614D01*
X65850014Y-96958277D01*
X65699670Y-96793051D01*
X65695619Y-96789852D01*
X65695615Y-96789848D01*
X65528414Y-96657800D01*
X65528410Y-96657798D01*
X65524359Y-96654598D01*
X65483053Y-96631796D01*
X65433084Y-96581364D01*
X65418312Y-96511921D01*
X65443428Y-96445516D01*
X65470780Y-96418909D01*
X65514603Y-96387650D01*
X65649860Y-96291173D01*
X65808096Y-96133489D01*
X65867594Y-96050689D01*
X65935435Y-95956277D01*
X65938453Y-95952077D01*
X65959320Y-95909857D01*
X66035136Y-95756453D01*
X66035137Y-95756451D01*
X66037430Y-95751811D01*
X66102370Y-95538069D01*
X66131529Y-95316590D01*
X66133156Y-95250000D01*
X66114852Y-95027361D01*
X66060431Y-94810702D01*
X65971354Y-94605840D01*
X65850014Y-94418277D01*
X65699670Y-94253051D01*
X65695619Y-94249852D01*
X65695615Y-94249848D01*
X65528414Y-94117800D01*
X65528410Y-94117798D01*
X65524359Y-94114598D01*
X65328789Y-94006638D01*
X65323920Y-94004914D01*
X65323916Y-94004912D01*
X65123087Y-93933795D01*
X65123083Y-93933794D01*
X65118212Y-93932069D01*
X65113119Y-93931162D01*
X65113116Y-93931161D01*
X64903373Y-93893800D01*
X64903367Y-93893799D01*
X64898284Y-93892894D01*
X64824452Y-93891992D01*
X64680081Y-93890228D01*
X64680079Y-93890228D01*
X64674911Y-93890165D01*
X64454091Y-93923955D01*
X64241756Y-93993357D01*
X64043607Y-94096507D01*
X64039474Y-94099610D01*
X64039471Y-94099612D01*
X64015247Y-94117800D01*
X63864965Y-94230635D01*
X63710629Y-94392138D01*
X63603201Y-94549621D01*
X63548293Y-94594621D01*
X63477768Y-94602792D01*
X63414021Y-94571538D01*
X63393324Y-94547054D01*
X63312822Y-94422617D01*
X63312820Y-94422614D01*
X63310014Y-94418277D01*
X63159670Y-94253051D01*
X63155619Y-94249852D01*
X63155615Y-94249848D01*
X62988414Y-94117800D01*
X62988410Y-94117798D01*
X62984359Y-94114598D01*
X62788789Y-94006638D01*
X62783920Y-94004914D01*
X62783916Y-94004912D01*
X62583087Y-93933795D01*
X62583083Y-93933794D01*
X62578212Y-93932069D01*
X62573119Y-93931162D01*
X62573116Y-93931161D01*
X62363373Y-93893800D01*
X62363367Y-93893799D01*
X62358284Y-93892894D01*
X62284452Y-93891992D01*
X62140081Y-93890228D01*
X62140079Y-93890228D01*
X62134911Y-93890165D01*
X61914091Y-93923955D01*
X61701756Y-93993357D01*
X61503607Y-94096507D01*
X61499474Y-94099610D01*
X61499471Y-94099612D01*
X61475247Y-94117800D01*
X61324965Y-94230635D01*
X61170629Y-94392138D01*
X61044743Y-94576680D01*
X60950688Y-94779305D01*
X60890989Y-94994570D01*
X60867251Y-95216695D01*
X57658500Y-95216695D01*
X57658500Y-92074500D01*
X57678502Y-92006379D01*
X57732158Y-91959886D01*
X57784500Y-91948500D01*
X84455500Y-91948500D01*
X84523621Y-91968502D01*
G37*
G04 #@! TD.AperFunction*
M02*
